<?xml version="1.0" standalone="no"?>
<!DOCTYPE svg PUBLIC "-//W3C//DTD SVG 20010904//EN"
 "http://www.w3.org/TR/2001/REC-SVG-20010904/DTD/svg10.dtd">
<svg version="1.0" xmlns="http://www.w3.org/2000/svg"
 width="500.000000pt" height="500.000000pt" viewBox="0 0 500.000000 500.000000"
 preserveAspectRatio="xMidYMid meet">

<g transform="translate(0.000000,500.000000) scale(0.100000,-0.100000)"
fill="#000000" stroke="none">
<path d="M420 2455 l0 -1415 113 0 c61 0 387 -3 723 -7 514 -5 613 -3 620 8 4
8 7 97 6 199 -1 102 -2 191 -2 198 0 9 -93 12 -430 12 l-430 0 0 1000 0 1000
442 0 441 0 593 -594 c326 -327 595 -592 598 -588 3 3 6 137 6 297 l0 292 -29
39 c-16 21 -240 249 -499 507 l-471 467 -840 0 -841 0 0 -1415z"/>
<path d="M3110 3660 l0 -210 430 0 430 0 0 -1000 0 -1000 -448 0 -448 0 -592
593 -592 592 0 -310 0 -310 488 -490 487 -490 835 3 c459 1 843 2 853 2 16 0
17 74 17 1415 l0 1415 -730 0 -730 0 0 -210z"/>
</g>
</svg>
